<?xml version="1.0" encoding="UTF-8"?>
<svg version="1.1" xmlns="http://www.w3.org/2000/svg" width="1408" height="768">
<path d="M0 0 C1.23725327 -0.0004985 2.47450653 -0.00099701 3.74925232 -0.00151062 C6.35555636 0.00082215 8.96186299 0.01050338 11.56811523 0.02709961 C15.54887096 0.05072355 19.52895741 0.0476499 23.50976562 0.04101562 C26.04818106 0.04659201 28.58659369 0.05370163 31.125 0.0625 C32.31057999 0.06158859 33.49615997 0.06067719 34.71766663 0.05973816 C43.3040791 0.13315348 50.13911979 0.67345179 56.99609375 6.36328125 C64.86074662 15.71076844 65.29496004 25.24103889 65.26351929 37.07115173 C65.2680504 38.32952003 65.27258151 39.58788832 65.27724993 40.88438898 C65.2894203 44.35646017 65.28922657 47.82843458 65.28686118 51.30052221 C65.28645151 55.05316152 65.29750626 58.80577041 65.30697632 62.55839539 C65.32355323 69.90188547 65.32908432 77.24534344 65.33020107 84.58885067 C65.33115288 90.55918819 65.33526976 96.52951514 65.34160233 102.49984932 C65.35920372 119.43998346 65.36844262 136.38009231 65.36694138 153.32023566 C65.36686147 154.23251444 65.36678155 155.14479321 65.36669922 156.0847168 C65.36661746 156.99811353 65.3665357 157.91151026 65.36645146 158.85258568 C65.3656383 173.66011365 65.38478632 188.46753997 65.41297595 203.27503853 C65.44171608 218.49212598 65.45551571 233.70916385 65.4537884 248.92627913 C65.45312501 257.46447107 65.45859517 266.00255635 65.4801445 274.5407238 C65.49837089 281.80859054 65.50269149 289.07630223 65.48912565 296.34418195 C65.48260404 300.04980452 65.48244939 303.75512975 65.49983215 307.46072388 C65.51850841 311.48351567 65.50598797 315.50562161 65.49057007 319.52842712 C65.50085719 320.69157171 65.51114432 321.85471629 65.52174318 323.05310768 C65.4406021 332.64478379 63.29748201 340.74894297 56.640625 347.89453125 C51.19191003 352.760842 45.63216061 354.46790838 38.45239258 354.5402832 C37.34056107 354.55311844 36.22872955 354.56595367 35.08320618 354.57917786 C33.28631599 354.59025826 33.28631599 354.59025826 31.453125 354.6015625 C30.21495529 354.60963425 28.97678558 354.61770599 27.70109558 354.62602234 C25.07930904 354.63985308 22.45750457 354.65057974 19.83569336 354.65844727 C17.15967946 354.66729265 14.48418729 354.68813498 11.80834961 354.7199707 C7.93978268 354.76271862 4.07189905 354.77882802 0.203125 354.7890625 C-0.98468063 354.80657059 -2.17248627 354.82407867 -3.39628601 354.84211731 C-12.27632835 354.81907781 -19.47898148 353.1054537 -26.31640625 347.17578125 C-26.93128906 346.66660156 -27.54617188 346.15742187 -28.1796875 345.6328125 C-34.12624594 338.23463166 -34.58234384 330.62693658 -34.51856995 321.42762756 C-34.52551547 320.14475796 -34.532461 318.86188835 -34.539617 317.54014391 C-34.55817119 313.99955559 -34.55196466 310.45938761 -34.54146397 306.91878235 C-34.53445128 303.09250107 -34.55048553 299.26630435 -34.5634613 295.44004822 C-34.58507202 287.95213857 -34.58498196 280.46438108 -34.57683576 272.97645051 C-34.57052871 266.88882581 -34.57167925 260.80124538 -34.57810783 254.71362114 C-34.57900949 253.84626435 -34.57991114 252.97890756 -34.58084012 252.08526723 C-34.58269138 250.32308033 -34.58455394 248.56089345 -34.58642768 246.79870658 C-34.60299595 230.28448265 -34.59429524 213.77034423 -34.5774421 197.25612544 C-34.56274612 182.15757259 -34.57737381 167.05921875 -34.60621227 151.96069152 C-34.63562559 136.44526633 -34.64657289 120.92993294 -34.63703007 105.4144811 C-34.63600755 103.65857313 -34.63501293 101.90266513 -34.63404655 100.14675713 C-34.63357016 99.28288851 -34.63309377 98.4190199 -34.63260295 97.52897345 C-34.63044137 91.45161821 -34.64022924 85.37435015 -34.65481758 79.29701424 C-34.6723588 71.88637557 -34.67219799 64.47599058 -34.64946593 57.06536181 C-34.63833983 53.28678284 -34.63512361 49.50865052 -34.65376663 45.73009109 C-34.67374336 41.62833439 -34.6547508 37.52766125 -34.63209534 33.42591858 C-34.64393107 32.23942831 -34.65576679 31.05293803 -34.66796118 29.83049351 C-34.57316613 21.37400689 -32.85720662 14.58178315 -27.04346949 8.21704155 C-19.02499665 0.46181388 -10.67834969 -0.08309275 0 0 Z M-19.00390625 176.36328125 C-23.17419272 182.82771 -22.4818027 189.42299019 -22.44140625 196.86328125 C-22.46138672 198.16910156 -22.48136719 199.47492188 -22.50195312 200.8203125 C-22.50130859 202.08230469 -22.50066406 203.34429687 -22.5 204.64453125 C-22.50185303 205.78986328 -22.50370605 206.93519531 -22.50561523 208.11523438 C-21.72005053 213.20095351 -19.6192368 216.16578498 -15.51123047 219.21118164 C-10.30946583 220.91987768 -5.32913633 220.81107524 0.11328125 220.796875 C1.2844046 220.80211685 2.45552795 220.8073587 3.66213989 220.8127594 C6.13494068 220.81917159 8.60777201 220.81785305 11.08056641 220.80932617 C14.85114271 220.80082623 18.62019859 220.82957561 22.390625 220.86132812 C24.79817663 220.8629406 27.20573093 220.86236173 29.61328125 220.859375 C30.73435272 220.87060898 31.85542419 220.88184296 33.01046753 220.89341736 C39.78582283 220.83352077 44.25551082 220.05574804 49.99609375 216.36328125 C53.97416736 210.38830902 53.44463086 203.84930654 53.37109375 196.86328125 C53.38269531 195.76113281 53.39429688 194.65898437 53.40625 193.5234375 C53.38427375 187.42136468 53.265456 182.60529667 49.99609375 177.36328125 C44.38263178 172.09823695 38.27012485 172.79942023 30.8984375 172.8671875 C29.63141495 172.86573227 28.3643924 172.86427704 27.05897522 172.86277771 C24.38470759 172.86443538 21.71187127 172.8738831 19.0378418 172.89672852 C15.61917259 172.92514189 12.20139607 172.92236319 8.78266048 172.9096384 C5.50869569 172.90099338 2.23487441 172.91613252 -1.0390625 172.9296875 C-2.26311295 172.92675186 -3.48716339 172.92381622 -4.74830627 172.92079163 C-6.46049599 172.93981789 -6.46049599 172.93981789 -8.20727539 172.95922852 C-9.20843887 172.9646315 -10.20960236 172.97003448 -11.24110413 172.9756012 C-14.49583361 173.43230915 -16.36456452 174.42983497 -19.00390625 176.36328125 Z " fill="#8181E5" transform="translate(570.00390625,203.63671875)"/>
<path d="M0 0 C1.23962494 -0.0004985 2.47924988 -0.00099701 3.75643921 -0.00151062 C6.36693939 0.000822 8.97744216 0.01050231 11.58789062 0.02709961 C14.25728107 0.04291122 16.92542418 0.05224488 19.59472656 0.04760742 C23.45909894 0.04118741 27.32315003 0.04912109 31.1875 0.0625 C32.37824127 0.06158859 33.56898254 0.06067719 34.79580688 0.05973816 C36.4681691 0.07403618 36.4681691 0.07403618 38.17431641 0.08862305 C39.14946198 0.09323044 40.12460754 0.09783783 41.12930298 0.10258484 C48.03811775 0.7386497 52.91713173 3.83678889 57.9609375 8.36328125 C62.65262531 14.28962375 64.2028893 19.82382595 64.296875 27.31640625 C64.30525391 27.96974442 64.31363281 28.62308258 64.32226562 29.29621887 C64.34173801 31.40215438 64.34185872 33.50727097 64.3359375 35.61328125 C64.33539368 36.33192352 64.33484985 37.0505658 64.33428955 37.79098511 C64.29501835 49.04972554 63.5843295 59.63278249 59.9609375 70.36328125 C59.74131348 71.02553711 59.52168945 71.68779297 59.29541016 72.37011719 C55.1661477 84.43936981 48.72450641 95.99851764 39.9609375 105.36328125 C39.3009375 105.36328125 38.6409375 105.36328125 37.9609375 105.36328125 C37.9609375 106.02328125 37.9609375 106.68328125 37.9609375 107.36328125 C37.3009375 107.36328125 36.6409375 107.36328125 35.9609375 107.36328125 C35.72890625 107.9459375 35.496875 108.52859375 35.2578125 109.12890625 C28.41315397 120.92151071 9.04272673 127.83288987 -3.5546875 131.28564453 C-8.25977351 132.60870368 -11.30755625 134.06206211 -15.0390625 137.36328125 C-15.6990625 137.36328125 -16.3590625 137.36328125 -17.0390625 137.36328125 C-17.71467998 139.02633965 -18.37839531 140.6942273 -19.0390625 142.36328125 C-19.5505484 143.5551857 -20.0620343 144.74709015 -20.58901978 145.97511292 C-22.29488558 150.56034938 -22.4633023 154.72091696 -22.42724609 159.57397461 C-22.43513153 160.90003471 -22.43513153 160.90003471 -22.44317627 162.25288391 C-22.45629793 165.15314808 -22.44766527 168.05285597 -22.4375 170.953125 C-22.43952317 172.98279423 -22.44243662 175.01246276 -22.44619751 177.04212952 C-22.45061042 181.28784126 -22.44422374 185.53336313 -22.43017578 189.77905273 C-22.41309558 195.20374411 -22.42292442 200.62798976 -22.44089317 206.05266476 C-22.45176825 210.24186012 -22.44826741 214.43095099 -22.4405098 218.62014961 C-22.43851751 220.61950293 -22.44093269 222.61886593 -22.44794846 224.61820793 C-22.45562317 227.42012286 -22.44387445 230.22133067 -22.42724609 233.02319336 C-22.43331879 233.83853546 -22.43939148 234.65387756 -22.44564819 235.493927 C-22.3569746 243.61669187 -20.22749747 250.98891829 -15.0390625 257.36328125 C-9.56120302 262.04436117 -3.62828015 262.61176055 3.3359375 263.73828125 C23.69371408 267.41011767 40.8581448 273.5963888 54.1484375 290.36328125 C62.46059224 302.53011843 66.50268979 316.62027499 64.9609375 331.36328125 C63.09394487 339.39347114 59.85861283 346.06549518 52.91433716 350.74133301 C45.76646592 354.67204842 39.63392469 355.06783687 31.578125 354.95703125 C29.69675339 354.95709167 29.69675339 354.95709167 27.77737427 354.95715332 C24.46908671 354.95046019 21.16202907 354.92061201 17.85400391 354.88146973 C15.16477531 354.85723218 12.4759547 354.86274056 9.7866497 354.86873627 C6.55038187 354.87256308 3.31432265 354.85170561 0.078125 354.83203125 C-1.11789337 354.83182983 -2.31391174 354.83162842 -3.5461731 354.8314209 C-13.23044214 354.69485109 -20.03742493 353.04566913 -27.27734375 346.33203125 C-32.2612102 340.76247761 -34.15925442 334.39795439 -34.17328358 327.0420208 C-34.17774142 325.95688757 -34.18219926 324.87175434 -34.18679219 323.75373828 C-34.18660783 322.56212593 -34.18642347 321.37051357 -34.18623352 320.14279175 C-34.19174855 318.24327151 -34.19174855 318.24327151 -34.197375 316.30537713 C-34.20738586 312.78782961 -34.21111032 309.27029917 -34.21376431 305.75273943 C-34.21767008 301.9598013 -34.22724823 298.16687666 -34.23597717 294.37394714 C-34.25573391 285.21271661 -34.26580681 276.05148498 -34.27470496 266.89023846 C-34.27908917 262.57500937 -34.28445564 258.2597815 -34.28969383 253.94455338 C-34.30670535 239.59796592 -34.32119925 225.25137924 -34.32844257 210.90478325 C-34.33035244 207.18229039 -34.33227277 203.45979753 -34.33422852 199.73730469 C-34.33471226 198.8121086 -34.335196 197.88691252 -34.3356944 196.93368019 C-34.3439937 181.94801032 -34.36932928 166.9624203 -34.40180919 151.97678529 C-34.4348905 136.58809989 -34.4528923 121.19945506 -34.45608681 105.81073391 C-34.45825092 97.1718565 -34.46698502 88.53309552 -34.49254799 79.89425278 C-34.51426964 72.53660881 -34.52229822 65.17910956 -34.51258121 57.82143717 C-34.50804072 54.06926362 -34.50990777 50.3173886 -34.52934265 46.56525612 C-34.55025884 42.49185234 -34.53997562 38.41910871 -34.52680969 34.34567261 C-34.53777894 33.16744458 -34.54874818 31.98921655 -34.56004983 30.77528465 C-34.49558034 22.50496749 -33.20116394 15.35157085 -27.9609375 8.7421875 C-27.24421875 8.14277344 -26.5275 7.54335937 -25.7890625 6.92578125 C-25.08265625 6.30832031 -24.37625 5.69085938 -23.6484375 5.0546875 C-15.96246999 0.07261575 -8.92696168 -0.06928083 0 0 Z " fill="#A2ACF7" transform="translate(689.0390625,203.63671875)"/>
<path d="M0 0 C4.41107006 0.41515954 6.65203921 3.38635125 9.4375 6.5 C9.95538086 7.07024902 10.47326172 7.64049805 11.00683594 8.22802734 C16.93516033 14.87208413 22.2873166 21.95491034 27.58691406 29.10351562 C28.77775973 30.7017342 29.99177596 32.28265018 31.2109375 33.859375 C49.01479718 57.25873344 60.49835874 85.58085965 66.875 114.125 C67.09067627 115.08535156 67.30635254 116.04570313 67.52856445 117.03515625 C69.86850714 128.10693814 69.26476521 136.89205799 63.3125 146.8125 C56.94700592 152.83391332 51.21870768 156.09994568 42.44042969 156.16113281 C40.76784088 156.17554413 40.76784088 156.17554413 39.0614624 156.19024658 C37.86039856 156.19449646 36.65933472 156.19874634 35.421875 156.203125 C34.18133362 156.20882507 32.94079224 156.21452515 31.66265869 156.22039795 C29.03667045 156.22984469 26.41067037 156.23638064 23.78466797 156.24023438 C21.10191248 156.24462022 18.4194784 156.25851766 15.73681641 156.28125 C11.86090367 156.31178027 7.98539474 156.32229036 4.109375 156.328125 C2.91640808 156.3404718 1.72344116 156.3528186 0.49432373 156.36553955 C-9.75483199 156.33826314 -16.42036288 154.37383205 -24.015625 147.25 C-31.41110999 138.8645682 -31.1633336 128.45877299 -31.203125 117.8671875 C-31.21167511 116.08660446 -31.21167511 116.08660446 -31.22039795 114.27005005 C-31.22983554 111.75344732 -31.236377 109.23683231 -31.24023438 106.72021484 C-31.24984269 102.9369424 -31.28083776 99.15423656 -31.3125 95.37109375 C-31.39117908 77.70734951 -30.87862605 60.12194726 -24.875 43.3125 C-24.4260437 42.01989258 -24.4260437 42.01989258 -23.96801758 40.70117188 C-18.84226951 26.49511597 -11.49079717 14.66166003 -2 3 C-1.34 2.01 -0.68 1.02 0 0 Z " fill="#8383E4" transform="translate(804,402)"/>
<path d="M0 0 C1.1150592 -0.00960754 2.23011841 -0.01921509 3.37896729 -0.02911377 C4.58003113 -0.03336365 5.78109497 -0.03761353 7.01855469 -0.04199219 C8.25909607 -0.04769226 9.49963745 -0.05339233 10.777771 -0.05926514 C13.40375924 -0.06871188 16.02975931 -0.07524782 18.65576172 -0.07910156 C21.33851721 -0.08348741 24.02095129 -0.09738484 26.70361328 -0.12011719 C30.57952602 -0.15064745 34.45503494 -0.16115755 38.33105469 -0.16699219 C39.52402161 -0.17933899 40.71698853 -0.19168579 41.94610596 -0.20440674 C51.57463107 -0.17878204 58.51344663 1.39449528 65.67480469 8.16113281 C71.13825621 14.34982127 72.1067206 20.84825569 71.82324219 28.94628906 C70.66956709 38.63480541 66.13527101 45.37324947 58.69042969 51.37988281 C45.46536606 61.10419431 31.72685553 64.88824539 15.79833984 67.73632812 C12.3768342 68.3527518 8.97139985 69.02589447 5.56542969 69.72363281 C4.51613281 69.93117188 3.46683594 70.13871094 2.38574219 70.35253906 C-3.4300076 71.94917064 -7.77002802 74.44980996 -11.55957031 79.16113281 C-15.15385987 86.45777289 -15.01123005 94.00527865 -14.93457031 101.97363281 C-14.94617188 103.16794922 -14.95777344 104.36226563 -14.96972656 105.59277344 C-15.17211114 118.55712719 -15.17211114 118.55712719 -9.95556641 129.86743164 C-9.4948877 130.29435303 -9.03420898 130.72127441 -8.55957031 131.16113281 C-8.55957031 131.82113281 -8.55957031 132.48113281 -8.55957031 133.16113281 C6.64019984 139.4198617 22.25685165 138.29594411 38.44042969 138.16113281 C37.61771242 142.11090378 36.07797216 144.00038795 33.31542969 146.97363281 C32.50074219 147.8540625 31.68605469 148.73449219 30.84667969 149.64160156 C28.31137437 152.29626378 25.72767373 154.89058889 23.10839844 157.46191406 C21.36516113 159.23781155 19.74634932 161.0835903 18.12792969 162.97363281 C15.3642494 166.18447037 12.45423373 169.18380447 9.44042969 172.16113281 C5.2268903 176.34294374 1.21372543 180.57811695 -2.55957031 185.16113281 C-3.28402344 186.03511719 -4.00847656 186.90910156 -4.75488281 187.80957031 C-12.62967019 197.65938475 -19.07102138 208.36576742 -25.55957031 219.16113281 C-27.99305973 215.51089868 -27.84489386 212.81135296 -27.82699585 208.59205627 C-27.83152696 207.81391774 -27.83605808 207.0357792 -27.84072649 206.2340607 C-27.85341982 203.6179761 -27.85174692 201.00209838 -27.85009766 198.38598633 C-27.85608018 196.51340974 -27.86288508 194.64083562 -27.87045288 192.76826477 C-27.88815673 187.67274475 -27.89281034 182.57729186 -27.89408445 177.48174405 C-27.89550511 174.29609493 -27.89977327 171.11046292 -27.90507889 167.92481804 C-27.92359965 156.80411571 -27.93174769 145.68346138 -27.93017578 134.56274414 C-27.92897657 124.21035439 -27.95003025 113.85817387 -27.98166311 103.50583702 C-28.00786864 94.61138512 -28.01854115 85.71700132 -28.01726496 76.82251114 C-28.01675622 71.51353769 -28.02238983 66.20474977 -28.04362106 60.8958149 C-28.06307327 55.89463466 -28.06308029 50.89381542 -28.0485878 45.89262199 C-28.04650665 44.06417688 -28.05115891 42.23570879 -28.06330872 40.40730286 C-28.13187417 29.36709901 -28.1804538 18.08438835 -21.37207031 8.72363281 C-15.02214252 2.93814304 -8.5544412 0.05962693 0 0 Z " fill="#8484E3" transform="translate(800.5595703125,203.8388671875)"/>
<path d="M0 0 C1.08139755 -0.00953201 2.1627951 -0.01906403 3.27696228 -0.02888489 C4.43539139 -0.02797348 5.5938205 -0.02706207 6.78735352 -0.02612305 C7.98683121 -0.03040817 9.1863089 -0.0346933 10.4221344 -0.03910828 C12.95638397 -0.04484604 15.49065 -0.04535592 18.02490234 -0.04101562 C21.89847958 -0.0378563 25.77129257 -0.06132087 29.64477539 -0.08666992 C32.10896714 -0.08894304 34.57316093 -0.08964635 37.03735352 -0.08862305 C38.19375839 -0.09783279 39.35016327 -0.10704254 40.54161072 -0.11653137 C50.71804734 -0.05808602 50.71804734 -0.05808602 55.47875977 3.2746582 C60.96453389 10.09480982 60.6842961 16.71131496 60.72875977 25.0871582 C60.74938477 26.04686523 60.77000977 27.00657227 60.79125977 27.99536133 C60.82484144 34.14500534 60.12811624 38.69839363 57.47875977 44.2746582 C53.2337412 48.41355131 49.90225767 49.39490018 44.09277344 49.43579102 C42.99120407 49.44539856 41.8896347 49.4550061 40.75468445 49.46490479 C38.96874626 49.4712796 38.96874626 49.4712796 37.14672852 49.4777832 C35.30997307 49.48633331 35.30997307 49.48633331 33.43611145 49.49505615 C30.8428331 49.50450933 28.24954272 49.51104139 25.65625 49.51489258 C21.69257597 49.52459379 17.72942134 49.55561342 13.76586914 49.5871582 C11.24699201 49.5936887 8.72811118 49.59893898 6.20922852 49.6027832 C5.02467575 49.61513 3.84012299 49.62747681 2.61967468 49.64019775 C-7.76278819 49.61215269 -7.76278819 49.61215269 -12.52124023 46.2746582 C-19.48167995 38.18549853 -17.90228204 26.36223857 -17.52124023 16.2746582 C-17.07718636 11.21244408 -16.72060277 7.57126635 -13.20874023 3.7746582 C-8.70963608 1.2635303 -5.17871097 0.02517263 0 0 Z " fill="#F1AF02" transform="translate(812.521240234375,282.725341796875)"/>
<path d="M0 0 C0.99309677 -0.0033284 1.98619354 -0.0066568 3.00938416 -0.01008606 C5.09780416 -0.01512384 7.18623213 -0.01749536 9.2746582 -0.01733398 C12.4586308 -0.01952697 15.64226013 -0.03773408 18.82617188 -0.05664062 C20.86328007 -0.05957396 22.90038991 -0.06155916 24.9375 -0.0625 C25.88246841 -0.06968552 26.82743683 -0.07687103 27.80104065 -0.08427429 C39.72241179 -0.04327556 39.72241179 -0.04327556 44.14453125 3.60546875 C48.86727421 10.11959696 48.62076145 15.05029224 48.64257812 22.86157227 C48.65225936 24.96215786 48.68327059 27.0617545 48.71484375 29.16210938 C48.72137661 30.50390045 48.72662597 31.84569852 48.73046875 33.1875 C48.73981445 34.40542236 48.74916016 35.62334473 48.75878906 36.87817383 C48.2397483 41.66863562 46.08771405 45.09682684 42.40234375 48.16796875 C39.29560434 49.20354855 37.09210738 49.31306387 33.83276367 49.3449707 C32.12034737 49.36422356 32.12034737 49.36422356 30.37333679 49.38386536 C28.52177727 49.39494576 28.52177727 49.39494576 26.6328125 49.40625 C24.72946892 49.41835762 24.72946892 49.41835762 22.78767395 49.43070984 C20.10019276 49.44455033 17.41283422 49.4555669 14.7253418 49.46313477 C11.29209435 49.47419111 7.85949649 49.50858744 4.42647839 49.54830647 C1.14115449 49.58082248 -2.14422723 49.58525553 -5.4296875 49.59375 C-7.27213799 49.62001213 -7.27213799 49.62001213 -9.15180969 49.64680481 C-19.79334612 49.61975814 -19.79334612 49.61975814 -24.59765625 45.16796875 C-28.90202371 39.54408061 -28.07504516 32.55232608 -28.03515625 25.79296875 C-28.05513672 24.59929687 -28.07511719 23.405625 -28.09570312 22.17578125 C-28.09175239 15.03285835 -27.50171886 10.20808041 -23.59765625 4.16796875 C-17.47496968 -1.10434469 -7.65715416 0.00903665 0 0 Z " fill="#C1BDFC" transform="translate(704.59765625,343.83203125)"/>
<path d="M0 0 C1.26465088 -0.0038269 2.52930176 -0.00765381 3.83227539 -0.01159668 C6.50235149 -0.01431503 9.17095537 -0.00898576 11.84082031 0.00976562 C15.25058273 0.03255571 18.6590856 0.01942339 22.06880188 -0.00452423 C25.33757876 -0.02251307 28.60620664 -0.00989155 31.875 0 C33.09388916 -0.00809692 34.31277832 -0.01619385 35.56860352 -0.02453613 C46.32180577 0.09425233 46.32180577 0.09425233 50.9375 4.53125 C54.10509814 8.48050669 54.32233395 11.63703227 54.3359375 16.625 C54.33880768 17.29414429 54.34167786 17.96328857 54.34463501 18.65270996 C54.34666792 20.06128795 54.34119226 21.46989468 54.32861328 22.87841797 C54.31254632 25.02506085 54.32848592 27.16982139 54.34765625 29.31640625 C54.34567368 30.69010829 54.34182971 32.06380917 54.3359375 33.4375 C54.33255371 34.67822266 54.32916992 35.91894531 54.32568359 37.19726562 C53.90690103 40.7940547 53.09655994 42.65768568 50.9375 45.53125 C45.54981692 49.39933016 40.8954012 49.67839617 34.41796875 49.609375 C33.67500046 49.60496399 32.93203217 49.60055298 32.16654968 49.5960083 C29.75679496 49.57966387 27.34718744 49.55544329 24.9375 49.53125 C23.3198254 49.52001134 21.7021496 49.50894388 20.08447266 49.49804688 C15.97212835 49.46544787 11.86097593 49.40228009 7.74926758 49.32373047 C6.0635059 49.2950773 4.37759878 49.2740903 2.69165039 49.26025391 C0.20652081 49.23883243 -2.27705725 49.19233007 -4.76171875 49.140625 C-5.50862473 49.13939636 -6.2555307 49.13816772 -7.02507019 49.13690186 C-12.16460785 48.99324528 -15.19454425 47.91832094 -19.0625 44.53125 C-21.80682544 40.31299944 -22.44564825 37.01700295 -22.4609375 32.03125 C-22.46673828 30.2059375 -22.46673828 30.2059375 -22.47265625 28.34375 C-22.46105469 27.085625 -22.44945312 25.8275 -22.4375 24.53125 C-22.44910156 23.273125 -22.46070313 22.015 -22.47265625 20.71875 C-22.46878906 19.501875 -22.46492187 18.285 -22.4609375 17.03125 C-22.45755371 15.9278125 -22.45416992 14.824375 -22.45068359 13.6875 C-21.8387593 8.71205519 -20.25062762 5.70469729 -16.69140625 2.18945312 C-11.19342843 -0.32280907 -5.97659982 -0.03970178 0 0 Z " fill="#D7D5FD" transform="translate(699.0625,407.46875)"/>
<path d="M0 0 C0.66 0 1.32 0 2 0 C2.72222528 3.89374855 3.12466346 7.57453424 3.12304783 11.53281975 C3.12503888 12.61416848 3.12702993 13.69551721 3.12908131 14.80963409 C3.12471205 16.57520021 3.12471205 16.57520021 3.12025452 18.37643433 C3.12110894 19.63521145 3.12196337 20.89398857 3.12284368 22.19091046 C3.12507657 25.67764907 3.12108386 29.16435689 3.11606562 32.65109158 C3.11174399 36.41380244 3.11320876 40.17651159 3.1139679 43.93922424 C3.11449204 50.45599656 3.11135663 56.97275886 3.10573006 63.48952866 C3.0976003 72.91166383 3.09499832 82.33379416 3.09374207 91.75593247 C3.09155387 107.04302022 3.08490007 122.33010264 3.07543945 137.6171875 C3.06625933 152.46647108 3.05918143 167.31575321 3.05493164 182.16503906 C3.05466892 183.08047036 3.05440619 183.99590167 3.05413551 184.93907331 C3.05283046 189.53155937 3.05156676 194.12404544 3.05032361 198.71653152 C3.03995823 236.81102475 3.02234622 274.90551202 3 313 C2.01 311.515 2.01 311.515 1 310 C0.34 309.67 -0.32 309.34 -1 309 C-0.67 207.03 -0.34 105.06 0 0 Z " fill="#BABAEA" transform="translate(632,222)"/>
<path d="M0 0 C0.33 0 0.66 0 1 0 C2.81610952 29.83951219 3.31503263 59.59254004 3.30158257 89.48275709 C3.30049321 94.29613233 3.30544248 99.10949496 3.310188 103.92286742 C3.32114726 115.25604288 3.32179107 126.58918513 3.31567383 137.92236328 C3.30957208 149.59353033 3.32213096 161.26457873 3.3432439 172.93572557 C3.36081671 183.02314752 3.36687024 193.11053143 3.36360615 203.19796813 C3.36179472 209.1963062 3.36442071 215.19455847 3.37832069 221.19288254 C3.39083245 226.79611516 3.38901874 232.39915851 3.37590981 238.002388 C3.37353428 240.05878639 3.37631336 242.11519793 3.38453293 244.17158127 C3.39491423 246.96897098 3.38697141 249.76571417 3.3742218 252.56307983 C3.38159609 253.38238303 3.38897037 254.20168622 3.39656812 255.04581678 C3.34243237 260.65756763 3.34243237 260.65756763 0 264 C0 176.88 0 89.76 0 0 Z " fill="#A8AFEC" transform="translate(655,226)"/>
<path d="M0 0 C4.94913249 4.29793085 6.68411525 8.11256732 7.203125 14.49975586 C7.30439596 17.31534183 7.32201153 20.12018466 7.3125 22.9375 C7.32861328 23.88818359 7.34472656 24.83886719 7.36132812 25.81835938 C7.36553074 31.91635242 6.61597589 36.46836601 4 42 C-0.24501857 46.13889311 -3.5765021 47.12024198 -9.38598633 47.16113281 C-10.48755569 47.17074036 -11.58912506 47.1803479 -12.72407532 47.19024658 C-14.5100135 47.1966214 -14.5100135 47.1966214 -16.33203125 47.203125 C-18.1687867 47.21167511 -18.1687867 47.21167511 -20.04264832 47.22039795 C-22.63592667 47.22985113 -25.22921705 47.23638319 -27.82250977 47.24023438 C-31.7861838 47.24993559 -35.74933843 47.28095522 -39.71289062 47.3125 C-42.23176775 47.31903049 -44.75064859 47.32428078 -47.26953125 47.328125 C-48.45408401 47.3404718 -49.63863678 47.3528186 -50.85908508 47.36553955 C-61.50589751 47.33678042 -61.50589751 47.33678042 -66 44 C-66.66 42.68 -67.32 41.36 -68 40 C-64.7 40.66 -61.4 41.32 -58 42 C-58 42.33 -58 42.66 -58 43 C-49.14482995 44.14553534 -40.36218047 44.15252023 -31.44970703 44.13037109 C-28.87396397 44.12499784 -26.29839411 44.13034923 -23.72265625 44.13671875 C-22.06249962 44.13605811 -20.4023431 44.13477723 -18.7421875 44.1328125 C-17.98364471 44.13483673 -17.22510193 44.13686096 -16.443573 44.13894653 C-7.68373755 44.26980006 -7.68373755 44.26980006 0.4375 41.625 C3.01885373 37.28832573 2.87436106 32.97093189 3 28 C3.0306958 26.85966309 3.0306958 26.85966309 3.06201172 25.69628906 C3.12212577 23.15162647 3.15948022 20.60771016 3.1875 18.0625 C3.20071289 17.23355225 3.21392578 16.40460449 3.22753906 15.55053711 C3.22850586 14.76171143 3.22947266 13.97288574 3.23046875 13.16015625 C3.23457764 12.45511963 3.23868652 11.75008301 3.24291992 11.02368164 C2.95933309 8.66121807 2.11767645 7.08542394 1 5 C0.62331656 3.34259285 0.27942455 1.67654729 0 0 Z " fill="#E8C85D" transform="translate(866,285)"/>
<path d="M0 0 C0.89847656 0.00257813 1.79695312 0.00515625 2.72265625 0.0078125 C3.61855469 0.00523437 4.51445313 0.00265625 5.4375 0 C7.78515625 0.1328125 7.78515625 0.1328125 9.78515625 1.1328125 C9.78515625 1.7928125 9.78515625 2.4528125 9.78515625 3.1328125 C3.16954895 6.7919569 -3.04552395 6.55207591 -10.48046875 6.49609375 C-11.7508197 6.49659225 -13.02117065 6.49709076 -14.33001709 6.49760437 C-17.00645774 6.49526968 -19.68209745 6.48717105 -22.35839844 6.46899414 C-25.78717785 6.44621596 -29.21551754 6.44578398 -32.64435196 6.45251179 C-35.92309075 6.45665387 -39.20175132 6.44468688 -42.48046875 6.43359375 C-43.71170471 6.43450516 -44.94294067 6.43541656 -46.21148682 6.43635559 C-47.91906158 6.42205757 -47.91906158 6.42205757 -49.66113281 6.4074707 C-50.66372131 6.40286331 -51.66630981 6.39825592 -52.69927979 6.39350891 C-55.21484375 6.1328125 -55.21484375 6.1328125 -58.21484375 4.1328125 C-51.66533352 1.19734143 -46.31360676 0.74009845 -39.1875 0.875 C-37.64321571 0.88492477 -37.64321571 0.88492477 -36.06773376 0.89505005 C-32.80395652 0.91832213 -29.54087642 0.96205416 -26.27734375 1.0078125 C-22.98890381 1.0428444 -19.70049911 1.07358626 -16.41197205 1.09915161 C-14.37086348 1.11617366 -12.32979551 1.13935184 -10.28883362 1.16915894 C-8.9162162 1.18379684 -8.9162162 1.18379684 -7.51586914 1.19873047 C-6.70726944 1.20999969 -5.89866974 1.22126892 -5.06556702 1.23287964 C-2.68232503 1.10401964 -2.50005773 0.14991528 0 0 Z " fill="#ADB5F2" transform="translate(731.21484375,551.8671875)"/>
<path d="M0 0 C0.33 0 0.66 0 1 0 C3.15890183 11.55177067 3.18380158 22.6976606 2.9765625 34.3984375 C2.95033246 36.32897697 2.92507074 38.25952982 2.90072632 40.19009399 C2.83469085 45.22397045 2.75567113 50.25755881 2.67376709 55.29119873 C2.59223941 60.44662583 2.5232397 65.60221979 2.453125 70.7578125 C2.31421082 80.83874142 2.16155252 90.9194102 2 101 C3.32 101 4.64 101 6 101 C4.44191344 111.55808656 4.44191344 111.55808656 0 116 C-0.93960676 112.02789873 -1.12897259 108.33524997 -1.1328125 104.2578125 C-1.13413177 103.56936249 -1.13545105 102.88091248 -1.1368103 102.17160034 C-1.13876754 99.82269194 -1.1322468 97.47389707 -1.125 95.125 C-1.12411377 94.30483398 -1.12322754 93.48466797 -1.12231445 92.63964844 C-1.08439888 61.75887525 -0.48312259 30.87634891 0 0 Z " fill="#6868B8" transform="translate(774,307)"/>
<path d="M0 0 C0 0.66 0 1.32 0 2 C-7.07607077 5.28202547 -13.31035456 5.42326261 -21.0390625 5.36328125 C-22.27868744 5.36377975 -23.51831238 5.36427826 -24.79550171 5.36479187 C-27.40600189 5.36245925 -30.01650466 5.35277894 -32.62695312 5.33618164 C-35.29634357 5.32037003 -37.96448668 5.31103637 -40.63378906 5.31567383 C-44.49816144 5.32209384 -48.36221253 5.31416016 -52.2265625 5.30078125 C-53.41730377 5.30169266 -54.60804504 5.30260406 -55.83486938 5.30354309 C-56.94977753 5.29401108 -58.06468567 5.28447906 -59.21337891 5.2746582 C-60.18852448 5.27005081 -61.16367004 5.26544342 -62.16836548 5.26069641 C-65.34593731 4.96815104 -68.01808197 4.11082509 -71 3 C-68.43077907 0.43077907 -67.4113569 0.73119736 -63.83862305 0.68115234 C-62.75957199 0.66128265 -61.68052094 0.64141296 -60.56877136 0.62094116 C-59.394944 0.60938995 -58.22111664 0.59783875 -57.01171875 0.5859375 C-55.80240189 0.56657135 -54.59308502 0.5472052 -53.34712219 0.5272522 C-49.46065426 0.4673303 -45.57415372 0.42112383 -41.6875 0.375 C-39.10871085 0.3368125 -36.52993435 0.29776032 -33.95117188 0.2578125 C-22.63331211 0.08981107 -11.31924648 -0.02491413 0 0 Z " fill="#8D8CE1" transform="translate(622,553)"/>
<path d="M0 0 C1.65 0 3.3 0 5 0 C5 0.66 5 1.32 5 2 C6.32 2 7.64 2 9 2 C9 1.34 9 0.68 9 0 C16.7884635 -0.04629055 24.57689492 -0.08185242 32.36546135 -0.10362434 C35.98180873 -0.11407249 39.59806216 -0.12825032 43.21435547 -0.15087891 C46.70268811 -0.1725708 50.19093024 -0.18456085 53.6793251 -0.18975449 C55.66139971 -0.19526169 57.64343779 -0.21088034 59.62545776 -0.22659302 C60.82655182 -0.22674408 62.02764587 -0.22689514 63.26513672 -0.22705078 C64.32658905 -0.231492 65.38804138 -0.23593323 66.48165894 -0.24050903 C69 0 69 0 71 2 C66.9346481 3.51442623 63.54626633 4.25418607 59.21337891 4.2746582 C57.54101669 4.28895622 57.54101669 4.28895622 55.83486938 4.30354309 C54.64412811 4.30263168 53.45338684 4.30172028 52.2265625 4.30078125 C50.98885101 4.30506638 49.75113953 4.3093515 48.47592163 4.31376648 C45.19431365 4.32096531 41.91288993 4.31789605 38.63128662 4.31219482 C35.31141035 4.31269981 31.99167474 4.34022076 28.671875 4.36132812 C26.1276051 4.36360157 23.58333321 4.36430441 21.0390625 4.36328125 C19.85236969 4.372491 18.66567688 4.38170074 17.44302368 4.39118958 C10.90471156 4.3548666 5.95146634 3.76041107 0 1 C0 0.67 0 0.34 0 0 Z " fill="#8E8EDF" transform="translate(787,554)"/>
<path d="M0 0 C1.14088074 0.00007553 2.28176147 0.00015106 3.45721436 0.00022888 C4.68337463 0.00539017 5.90953491 0.01055145 7.17285156 0.01586914 C8.43236633 0.01728409 9.6918811 0.01869904 10.98956299 0.02015686 C14.33012775 0.02480466 17.67062378 0.03378258 21.01116943 0.04486084 C24.42313037 0.05510941 27.83509841 0.05966185 31.24707031 0.06469727 C37.93589136 0.07572576 44.62467999 0.0924635 51.31347656 0.11352539 C51.31347656 1.10352539 51.31347656 2.09352539 51.31347656 3.11352539 C50.73194824 3.10828857 50.15041992 3.10305176 49.55126953 3.09765625 C37.72456532 3.00625441 25.95632488 3.14116548 14.14453125 3.75561523 C6.19298249 4.15710612 -1.72584738 4.21617021 -9.68652344 4.11352539 C-9.68652344 3.12352539 -9.68652344 2.13352539 -9.68652344 1.11352539 C-6.39687004 0.12757555 -3.4269529 -0.00758175 0 0 Z " fill="#A8B1EF" transform="translate(681.6865234375,203.886474609375)"/>
<path d="M0 0 C19.8 0 39.6 0 60 0 C59.67 0.99 59.34 1.98 59 3 C37.88 3 16.76 3 -5 3 C-5 2.67 -5 2.34 -5 2 C-3.35 1.67 -1.7 1.34 0 1 C0 0.67 0 0.34 0 0 Z " fill="#7373D7" transform="translate(796,205)"/>
<path d="M0 0 C8.94463131 -0.06946766 17.88916996 -0.12279465 26.83401203 -0.15543652 C30.98733857 -0.17110189 35.14048075 -0.19235582 39.29370117 -0.22631836 C43.30075585 -0.2588811 47.30763304 -0.27684645 51.3148098 -0.28463173 C52.84466535 -0.29018082 54.37451103 -0.30101676 55.90429115 -0.31719017 C58.04488855 -0.33892415 60.18474973 -0.34196872 62.32543945 -0.34057617 C63.54455521 -0.34723801 64.76367096 -0.35389984 66.01972961 -0.36076355 C69 0 69 0 72 3 C40.32 2.505 40.32 2.505 8 2 C8 2.66 8 3.32 8 4 C6.68 4 5.36 4 4 4 C4 3.34 4 2.68 4 2 C2.35 2 0.7 2 -1 2 C-0.67 1.34 -0.34 0.68 0 0 Z " fill="#6566D8" transform="translate(788,552)"/>
<path d="M0 0 C4.94913249 4.29793085 6.68411525 8.11256732 7.203125 14.49975586 C7.30439596 17.31534183 7.32201153 20.12018466 7.3125 22.9375 C7.32861328 23.88818359 7.34472656 24.83886719 7.36132812 25.81835938 C7.36552904 31.91389285 6.60591881 36.46714339 4 42 C1.8125 44 1.8125 44 0 45 C-0.495 43.515 -0.495 43.515 -1 42 C-0.51917969 41.5978125 -0.03835938 41.195625 0.45703125 40.78125 C4.93768738 35.60864444 3.12047066 24.65768622 3.1875 18.0625 C3.20063232 17.23363281 3.21376465 16.40476562 3.22729492 15.55078125 C3.22834229 14.761875 3.22938965 13.97296875 3.23046875 13.16015625 C3.23457764 12.45511963 3.23868652 11.75008301 3.24291992 11.02368164 C2.95933309 8.66121807 2.11767645 7.08542394 1 5 C0.62331656 3.34259285 0.27942455 1.67654729 0 0 Z " fill="#E6C57F" transform="translate(866,285)"/>
<path d="M0 0 C-10.490975 2.35199402 -20.76154057 2.20135944 -31.4375 2.0625 C-34.01594815 2.034754 -36.59433729 2.01008836 -39.17286682 1.99131775 C-40.76450305 1.97918557 -42.35611064 1.96170844 -43.94761658 1.93800354 C-47.76857797 1.90342531 -51.28716078 2.06387834 -55 3 C-55.33 1.68 -55.66 0.36 -56 -1 C-48.50721986 -1.19343095 -41.0141846 -1.37087859 -33.52075195 -1.53710938 C-30.97053418 -1.59558198 -28.4203982 -1.65774123 -25.87036133 -1.72363281 C-22.20929861 -1.81759748 -18.54814841 -1.898389 -14.88671875 -1.9765625 C-13.7428923 -2.00875885 -12.59906586 -2.0409552 -11.420578 -2.0741272 C-10.35970474 -2.09429901 -9.29883148 -2.11447083 -8.20581055 -2.13525391 C-7.27093307 -2.15746002 -6.3360556 -2.17966614 -5.37284851 -2.20254517 C-3 -2 -3 -2 0 0 Z " fill="#9598DB" transform="translate(615,425)"/>
<path d="M0 0 C1.63684753 -0.00956978 1.63684753 -0.00956978 3.3067627 -0.01933289 C5.07400696 -0.02100212 5.07400696 -0.02100212 6.87695312 -0.02270508 C8.08637573 -0.02603348 9.29579834 -0.02936188 10.54187012 -0.03279114 C13.10066344 -0.03785697 15.65946338 -0.04019957 18.21826172 -0.04003906 C22.14236256 -0.04222749 26.06618323 -0.0603925 29.99023438 -0.0793457 C32.47330633 -0.08227924 34.95637962 -0.0842643 37.43945312 -0.08520508 C38.61761597 -0.09239059 39.79577881 -0.09957611 41.00964355 -0.10697937 C42.64649109 -0.10236443 42.64649109 -0.10236443 44.31640625 -0.09765625 C45.27776489 -0.09908127 46.23912354 -0.10050629 47.22961426 -0.10197449 C49.65820312 0.14526367 49.65820312 0.14526367 52.65820312 2.14526367 C45.00033447 2.32213309 37.34229589 2.48809504 29.6838932 2.64003944 C26.12798608 2.71093431 22.57224196 2.78561929 19.01660156 2.86889648 C14.93116982 2.96441724 10.84556492 3.04357708 6.75976562 3.12182617 C5.47953522 3.15402252 4.19930481 3.18621887 2.88027954 3.21939087 C1.10866959 3.24964859 1.10866959 3.24964859 -0.69873047 3.28051758 C-2.26426163 3.31382675 -2.26426163 3.31382675 -3.86141968 3.34780884 C-6.34179688 3.14526367 -6.34179688 3.14526367 -8.34179688 1.14526367 C-5.28744917 0.12714777 -3.19779304 0.01267929 0 0 Z " fill="#F0D466" transform="translate(812.341796875,282.854736328125)"/>
<path d="M0 0 C0.99 0.495 0.99 0.495 2 1 C2.66069572 16.00798453 3.16290365 30.97666313 3 46 C2.01 46.495 2.01 46.495 1 47 C0.06487566 44.19462697 -0.12182907 42.51834636 -0.11352539 39.62036133 C-0.11344986 38.73967484 -0.11337433 37.85898834 -0.11329651 36.95161438 C-0.10813522 36.00465195 -0.10297394 35.05768951 -0.09765625 34.08203125 C-0.0962413 33.10965012 -0.09482635 32.13726898 -0.09336853 31.13542175 C-0.08776817 28.02774996 -0.07521562 24.92015004 -0.0625 21.8125 C-0.05748505 19.70638125 -0.05292213 17.60026137 -0.04882812 15.49414062 C-0.03779862 10.32939936 -0.02053375 5.16471187 0 0 Z " fill="#A5AEE8" transform="translate(655,492)"/>
<path d="M0 0 C17.82 0 35.64 0 54 0 C53.67 0.66 53.34 1.32 53 2 C52.43116592 1.99333817 51.86233185 1.98667633 51.27626038 1.97981262 C45.3221709 1.91311791 39.36818865 1.86805859 33.41381836 1.83520508 C31.1956755 1.82017723 28.97756207 1.79974923 26.75952148 1.77368164 C23.55965892 1.73703376 20.36019139 1.72021312 17.16015625 1.70703125 C16.17854019 1.69154739 15.19692413 1.67606354 14.18556213 1.66011047 C7.92005779 1.65860061 2.80340454 2.62198097 -3 5 C-3 4.34 -3 3.68 -3 3 C-2.01 3 -1.02 3 0 3 C0 2.01 0 1.02 0 0 Z " fill="#99A4F1" transform="translate(675,552)"/>
<path d="M0 0 C1.16257324 0.01047363 2.32514648 0.02094727 3.52294922 0.03173828 C5.40820312 0.04140625 5.40820312 0.04140625 7.33154297 0.05126953 C9.30960938 0.07640625 9.30960938 0.07640625 11.32763672 0.10205078 C12.66747393 0.11208096 14.00731823 0.12120674 15.34716797 0.12939453 C18.63250244 0.15303003 21.91748137 0.18597844 25.20263672 0.22705078 C23.20263672 3.22705078 23.20263672 3.22705078 21.05126953 3.69116211 C20.17825195 3.73007568 19.30523438 3.76898926 18.40576172 3.80908203 C17.44669922 3.85355469 16.48763672 3.89802734 15.49951172 3.94384766 C14.49404297 3.97542969 13.48857422 4.00701172 12.45263672 4.03955078 C11.46263672 4.09046875 10.47263672 4.14138672 9.45263672 4.19384766 C4.26152828 4.3985772 0.05669098 4.36514611 -4.79736328 2.22705078 C-2.79736328 0.22705078 -2.79736328 0.22705078 0 0 Z " fill="#7F7DD9" transform="translate(555.79736328125,553.77294921875)"/>
<path d="M0 0 C0.33 0 0.66 0 1 0 C1 3.96 1 7.92 1 12 C2.32 12 3.64 12 5 12 C3.44191344 22.55808656 3.44191344 22.55808656 -1 27 C-2.33431286 21.99632677 -3.37905675 14.7581135 -1 10 C-0.77377919 8.29636178 -0.59111527 6.58671299 -0.4375 4.875 C-0.35371094 3.96492188 -0.26992188 3.05484375 -0.18359375 2.1171875 C-0.12300781 1.41851562 -0.06242188 0.71984375 0 0 Z " fill="#797CC6" transform="translate(775,396)"/>
<path d="M0 0 C1.125 3.75 1.125 3.75 0 6 C-0.0689472 7.37342831 -0.08467708 8.75002102 -0.0625 10.125 C-0.041875 11.40375 -0.02125 12.6825 0 14 C0.66 14 1.32 14 2 14 C2.29296875 20.0546875 2.29296875 20.0546875 2 22 C1.01 22.66 0.02 23.32 -1 24 C-1.66 24.99 -2.32 25.98 -3 27 C-3.40757013 8.74991551 -3.40757013 8.74991551 -1 1 C-0.67 0.67 -0.34 0.34 0 0 Z " fill="#C18204" transform="translate(798,288)"/>
<path d="M0 0 C-3.30651084 1.00253728 -6.2405908 1.09034222 -9.68652344 1.02172852 C-10.82740417 1.00163223 -11.96828491 0.98153595 -13.14373779 0.96083069 C-14.36989807 0.93379562 -15.59605835 0.90676056 -16.859375 0.87890625 C-18.11888977 0.85529526 -19.37840454 0.83168427 -20.67608643 0.80735779 C-24.01672274 0.74377606 -27.35719911 0.67556319 -30.69769287 0.60510254 C-34.10958468 0.53427725 -37.52159154 0.46954538 -40.93359375 0.40429688 C-47.62251602 0.27514476 -54.31129405 0.13988533 -61 0 C-61 -0.33 -61 -0.66 -61 -1 C-53.11658547 -1.19374654 -45.23292444 -1.37111927 -37.34887695 -1.53710938 C-34.66677081 -1.59433089 -31.98486096 -1.65675969 -29.30297852 -1.72363281 C-25.44822556 -1.81780779 -21.59338999 -1.89850002 -17.73828125 -1.9765625 C-15.93959343 -2.02485703 -15.93959343 -2.02485703 -14.10456848 -2.0741272 C-12.4233918 -2.10438492 -12.4233918 -2.10438492 -10.70825195 -2.13525391 C-9.23265556 -2.16856308 -9.23265556 -2.16856308 -7.72724915 -2.20254517 C-4.79522668 -1.98479206 -2.65549536 -1.22853929 0 0 Z " fill="#7273DB" transform="translate(860,554)"/>
<path d="M0 0 C3.62493334 -0.05787784 7.24974857 -0.0935542 10.875 -0.125 C11.90753906 -0.14175781 12.94007813 -0.15851562 14.00390625 -0.17578125 C14.99003906 -0.18222656 15.97617187 -0.18867187 16.9921875 -0.1953125 C18.35899658 -0.21102295 18.35899658 -0.21102295 19.75341797 -0.22705078 C22 0 22 0 24 2 C20.62738716 3.68630642 16.83041037 3.14239629 13.125 3.125 C11.90103516 3.13080078 11.90103516 3.13080078 10.65234375 3.13671875 C9.86214844 3.13542969 9.07195313 3.13414062 8.2578125 3.1328125 C7.5373877 3.13168457 6.81696289 3.13055664 6.07470703 3.12939453 C3.94144256 2.99634791 2.05248762 2.58204873 0 2 C0 1.34 0 0.68 0 0 Z " fill="#7E7EDC" transform="translate(834,554)"/>
<path d="M0 0 C0.33 0 0.66 0 1 0 C2.22399452 6.64041122 2.11227753 13.20221697 2.0625 19.9375 C2.05798828 21.09830078 2.05347656 22.25910156 2.04882812 23.45507812 C2.03710647 26.30343934 2.0206976 29.15169222 2 32 C1.34 32 0.68 32 0 32 C-1.3083923 25.32235335 -0.8972663 18.83093598 -0.5625 12.0625 C-0.51029297 10.90169922 -0.45808594 9.74089844 -0.40429688 8.54492188 C-0.27534663 5.69629383 -0.14041411 2.84808213 0 0 Z " fill="#6E6EC9" transform="translate(774,506)"/>
<path d="M0 0 C0.66 0.33 1.32 0.66 2 1 C2 9.91 2 18.82 2 28 C1.01 28 0.02 28 -1 28 C-1.02891949 23.70834738 -1.04677118 19.41671964 -1.0625 15.125 C-1.07087891 13.90167969 -1.07925781 12.67835938 -1.08789062 11.41796875 C-1.09111328 10.25136719 -1.09433594 9.08476562 -1.09765625 7.8828125 C-1.10289307 6.80402832 -1.10812988 5.72524414 -1.11352539 4.61376953 C-1 2 -1 2 0 0 Z " fill="#807FCA" transform="translate(623,385)"/>
<path d="M0 0 C-0.33 0.66 -0.66 1.32 -1 2 C-4.47782583 3.15927528 -7.18803257 3.11313066 -10.85546875 3.09765625 C-11.84792351 3.09553383 -11.84792351 3.09553383 -12.86042786 3.09336853 C-14.96949828 3.08777996 -17.07846177 3.07522965 -19.1875 3.0625 C-20.61913909 3.05748352 -22.05077985 3.05292087 -23.48242188 3.04882812 C-26.98831588 3.0378143 -30.4941475 3.02055755 -34 3 C-34 2.67 -34 2.34 -34 2 C-29.96166219 1.71293789 -25.92316904 1.42817949 -21.88452148 1.14550781 C-20.51208158 1.04912815 -19.13968488 0.9521311 -17.76733398 0.85449219 C-15.78901598 0.71385007 -13.8105249 0.57564918 -11.83203125 0.4375 C-10.64327393 0.35371094 -9.4545166 0.26992188 -8.22973633 0.18359375 C-5.47573649 0.02704315 -2.75717155 -0.0363683 0 0 Z " fill="#C3C1E9" transform="translate(748,390)"/>
<path d="M0 0 C8.91 0 17.82 0 27 0 C26 4 26 4 24 7 C23.01 7 22.02 7 21 7 C21 5.35 21 3.7 21 2 C14.07 2 7.14 2 0 2 C0 1.34 0 0.68 0 0 Z " fill="#6C6EAD" transform="translate(812,342)"/>
<path d="M0 0 C1.24716797 0.02707031 1.24716797 0.02707031 2.51953125 0.0546875 C4.55519074 0.10148427 6.5902509 0.17321702 8.625 0.25 C8.625 0.58 8.625 0.91 8.625 1.25 C7.47902344 1.229375 6.33304688 1.20875 5.15234375 1.1875 C-3.37188876 0.97019753 -3.37188876 0.97019753 -10.9921875 4.09765625 C-12.83340296 6.25151667 -12.83340296 6.25151667 -14.24609375 8.53515625 C-14.80490234 9.38400391 -14.80490234 9.38400391 -15.375 10.25 C-16.035 10.25 -16.695 10.25 -17.375 10.25 C-16.52621125 6.51532951 -15.79047129 4.61353738 -12.875 2.0625 C-8.36662127 -0.27219613 -4.98019274 -0.20651517 0 0 Z " fill="#D6D7F9" transform="translate(695.375,344.75)"/>
<path d="M0 0 C0.66 0 1.32 0 2 0 C2.44117322 4.49996683 2.52867608 6.34611117 -0.375 9.9375 C-3 12 -3 12 -5 12 C-5.33 12.66 -5.66 13.32 -6 14 C-5.41892368 10.2397015 -4.34800504 7.46964968 -2.4375 4.1875 C-1.98246094 3.39730469 -1.52742187 2.60710937 -1.05859375 1.79296875 C-0.53458984 0.90544922 -0.53458984 0.90544922 0 0 Z " fill="#9496E0" transform="translate(788,426)"/>
<path d="M0 0 C-1.95585325 1.00484204 -3.91476237 2.00373805 -5.875 3 C-6.96554687 3.556875 -8.05609375 4.11375 -9.1796875 4.6875 C-12 6 -12 6 -14 6 C-14 5.34 -14 4.68 -14 4 C-13.38125 3.9175 -12.7625 3.835 -12.125 3.75 C-9.81653196 3.21189267 -9.81653196 3.21189267 -9 1 C-8 -1 -8 -1 -6.125 -1.875 C-3.5243539 -2.02797918 -2.25768905 -1.21858531 0 0 Z " fill="#8A8ECC" transform="translate(854,259)"/>
<path d="M0 0 C0 0.66 0 1.32 0 2 C-1.40945366 2.56016748 -2.8280031 3.09748502 -4.25 3.625 C-5.43335938 4.07746094 -5.43335938 4.07746094 -6.640625 4.5390625 C-9.49917715 5.09752136 -10.58959839 4.53690745 -13 3 C-12.67 2.34 -12.34 1.68 -12 1 C-8.01624339 -0.17169312 -4.12560776 -0.08089427 0 0 Z " fill="#7F80C9" transform="translate(622,553)"/>
<path d="M0 0 C0 0.33 0 0.66 0 1 C-6.27 1.99 -12.54 2.98 -19 4 C-18.67 3.34 -18.34 2.68 -18 2 C-17.34 2 -16.68 2 -16 2 C-15.67 1.34 -15.34 0.68 -15 0 C-9.88129357 -1.40764427 -5.16172083 -0.7455819 0 0 Z " fill="#A1A6D9" transform="translate(820,270)"/>
<path d="M0 0 C0.66 0 1.32 0 2 0 C2 4.95 2 9.9 2 15 C1.01 15.495 1.01 15.495 0 16 C-1.03354508 12.89936477 -1.13364996 10.68555932 -1.125 7.4375 C-1.12757813 6.46683594 -1.13015625 5.49617187 -1.1328125 4.49609375 C-1 2 -1 2 0 0 Z " fill="#B5BEF0" transform="translate(656,523)"/>
<path d="M0 0 C0.66 0 1.32 0 2 0 C1.54996653 5.62541841 0.31558515 8.61487125 -3 13 C-3.66 12.67 -4.32 12.34 -5 12 C-4.67 10.68 -4.34 9.36 -4 8 C-3.34 8 -2.68 8 -2 8 C-1.855625 7.236875 -1.71125 6.47375 -1.5625 5.6875 C-1 3 -1 3 0 0 Z " fill="#B5BEED" transform="translate(751,535)"/>
<path d="M0 0 C2.46301423 2.46301423 2.76766521 4.27360036 3.625 7.625 C3.88539063 8.62789063 4.14578125 9.63078125 4.4140625 10.6640625 C4.60742188 11.43492187 4.80078125 12.20578125 5 13 C3.68 13 2.36 13 1 13 C-1.42857143 4.57142857 -1.42857143 4.57142857 0 0 Z " fill="#B6BCEE" transform="translate(665,444)"/>
<path d="M0 0 C2.94194821 2.73905523 5.33889284 5.30865076 7 9 C6.1875 11.3125 6.1875 11.3125 5 13 C4.7525 12.21625 4.505 11.4325 4.25 10.625 C2.84610901 7.67682892 1.99324263 7.0975223 -1 6 C-0.67 4.02 -0.34 2.04 0 0 Z " fill="#999CD9" transform="translate(835,437)"/>
<path d="M0 0 C6.27 0.33 12.54 0.66 19 1 C19 1.66 19 2.32 19 3 C18.11957031 2.98839844 17.23914063 2.97679687 16.33203125 2.96484375 C15.17058594 2.95582031 14.00914062 2.94679688 12.8125 2.9375 C11.66394531 2.92589844 10.51539063 2.91429687 9.33203125 2.90234375 C6.40699414 2.98807168 3.83683709 3.32150977 1 4 C0.67 2.68 0.34 1.36 0 0 Z " fill="#8789DA" transform="translate(559,424)"/>
<path d="M0 0 C0.66 0.99 1.32 1.98 2 3 C-1.3 6.3 -4.6 9.6 -8 13 C-8.33 11.68 -8.66 10.36 -9 9 C-7.68 8.34 -6.36 7.68 -5 7 C-5 6.34 -5 5.68 -5 5 C-3.625 3.375 -3.625 3.375 -2 2 C-1.34 2 -0.68 2 0 2 C0 1.34 0 0.68 0 0 Z " fill="#A7A6DC" transform="translate(813,368)"/>
<path d="M0 0 C0 0.66 0 1.32 0 2 C6.93 2 13.86 2 21 2 C21 2.33 21 2.66 21 3 C16.91672643 3.0580772 12.83355917 3.09362249 8.75 3.125 C7.01169922 3.15013672 7.01169922 3.15013672 5.23828125 3.17578125 C4.12324219 3.18222656 3.00820313 3.18867188 1.859375 3.1953125 C0.83295898 3.20578613 -0.19345703 3.21625977 -1.25097656 3.22705078 C-4.01984288 2.99836111 -5.64418792 2.4243299 -8 1 C-2.25 0 -2.25 0 0 0 Z " fill="#7E7FD5" transform="translate(812,342)"/>
<path d="M0 0 C0.33 0 0.66 0 1 0 C1 2.31 1 4.62 1 7 C1.66 7 2.32 7 3 7 C2.58578031 11.83256305 0.53586014 13.82679218 -3 17 C-3.33 16.01 -3.66 15.02 -4 14 C-3.51917969 13.62230469 -3.03835938 13.24460937 -2.54296875 12.85546875 C-0.46337042 10.35468595 -0.50158423 8.52693196 -0.3125 5.3125 C-0.24675781 4.31863281 -0.18101562 3.32476562 -0.11328125 2.30078125 C-0.07589844 1.54152344 -0.03851562 0.78226562 0 0 Z " fill="#E7BF5A" transform="translate(869,313)"/>
<path d="M0 0 C0.66 0.33 1.32 0.66 2 1 C1.67 5.29 1.34 9.58 1 14 C0.01 14 -0.98 14 -2 14 C-2.1799928 8.78020872 -1.97094808 4.92737019 0 0 Z " fill="#E7A400" transform="translate(799,288)"/>
<path d="M0 0 C0.8353125 0.37125 0.8353125 0.37125 1.6875 0.75 C0.264375 1.7709375 0.264375 1.7709375 -1.1875 2.8125 C-4.7502938 5.73667981 -5.4398588 8.2995299 -6.3125 12.75 C-6.6425 12.75 -6.9725 12.75 -7.3125 12.75 C-7.6060821 9.69674615 -7.73625383 6.79474974 -7.3125 3.75 C-4.92499914 0.96458233 -3.745356 -0.40490335 0 0 Z " fill="#A7B2F0" transform="translate(669.3125,208.25)"/>
<path d="M0 0 C2.79589592 2.43744772 4.73618018 4.170852 5.875 7.75 C6.03504162 11.91108209 5.59428545 15.88571611 5 20 C4.67 20 4.34 20 4 20 C3.87882813 18.94039063 3.75765625 17.88078125 3.6328125 16.7890625 C3.46399248 15.40098676 3.29469692 14.01296881 3.125 12.625 C3.04636719 11.92632812 2.96773437 11.22765625 2.88671875 10.5078125 C2.44779555 6.30927841 2.44779555 6.30927841 0 3 C0 2.01 0 1.02 0 0 Z " fill="#ECC463" transform="translate(866,285)"/>
<path d="M0 0 C0.66 0 1.32 0 2 0 C3.2982126 5.76081841 4.25706972 11.08739655 4 17 C3.67 17 3.34 17 3 17 C3 15.35 3 13.7 3 12 C2.34 12 1.68 12 1 12 C0.67 8.04 0.34 4.08 0 0 Z " fill="#AAACDC" transform="translate(869,517)"/>
<path d="M0 0 C0.99 0.33 1.98 0.66 3 1 C1.10019993 4.51463012 -0.56635317 6.89550678 -4 9 C-4.66 9 -5.32 9 -6 9 C-6 8.01 -6 7.02 -6 6 C-5.34 6 -4.68 6 -4 6 C-4 5.34 -4 4.68 -4 4 C-3.34 4 -2.68 4 -2 4 C-1.67 3.01 -1.34 2.02 -1 1 C-0.67 0.67 -0.34 0.34 0 0 Z " fill="#9E9FDE" transform="translate(865,545)"/>
<path d="M0 0 C8.57142857 -0.28571429 8.57142857 -0.28571429 12 2 C8.98509443 3.00496852 6.95818308 3.10335303 3.8125 3.0625 C2.46091797 3.04896484 2.46091797 3.04896484 1.08203125 3.03515625 C0.39496094 3.02355469 -0.29210937 3.01195312 -1 3 C-0.67 2.01 -0.34 1.02 0 0 Z " fill="#BEC4EA" transform="translate(684,467)"/>
<path d="M0 0 C0.33 0 0.66 0 1 0 C1.08086147 1.79093191 1.13912702 3.58289628 1.1875 5.375 C1.22230469 6.37273437 1.25710938 7.37046875 1.29296875 8.3984375 C1.19628906 9.25695312 1.09960938 10.11546875 1 11 C0.01 11.66 -0.98 12.32 -2 13 C-3.18771723 9.57056481 -2.80226223 7.62215325 -1.5625 4.25 C-1.27503906 3.45078125 -0.98757813 2.6515625 -0.69140625 1.828125 C-0.46324219 1.22484375 -0.23507812 0.6215625 0 0 Z " fill="#9C9BE6" transform="translate(781,440)"/>
<path d="M0 0 C3 1 3 1 7 4 C3.37 4.66 -0.26 5.32 -4 6 C-4 5.01 -4 4.02 -4 3 C-2.1875 1.25 -2.1875 1.25 0 0 Z " fill="#9799DC" transform="translate(827,264)"/>
<path d="M0 0 C0.33 0.66 0.66 1.32 1 2 C0.67 2.66 0.34 3.32 0 4 C-5.28 4 -10.56 4 -16 4 C-16 3.34 -16 2.68 -16 2 C-14.64455078 1.90912109 -14.64455078 1.90912109 -13.26171875 1.81640625 C-11.49248047 1.69072266 -11.49248047 1.69072266 -9.6875 1.5625 C-7.92986328 1.44068359 -7.92986328 1.44068359 -6.13671875 1.31640625 C-2.97409042 1.1132629 -2.97409042 1.1132629 0 0 Z " fill="#9AA5EC" transform="translate(696,468)"/>
<path d="M0 0 C3 1 3 1 4.1875 3.0625 C4.455625 3.701875 4.72375 4.34125 5 5 C4.01 5 3.02 5 2 5 C2 5.99 2 6.98 2 8 C1.01 8 0.02 8 -1 8 C-0.67 5.36 -0.34 2.72 0 0 Z " fill="#7B7BD0" transform="translate(841,448)"/>
<path d="M0 0 C0.99 0.33 1.98 0.66 3 1 C0.36 3.64 -2.28 6.28 -5 9 C-5.33 8.01 -5.66 7.02 -6 6 C-2.83636364 1.41818182 -2.83636364 1.41818182 0 0 Z " fill="#A8A9DF" transform="translate(832,349)"/>
<path d="M0 0 C1.65 0 3.3 0 5 0 C5 0.66 5 1.32 5 2 C5.639375 2.2475 6.27875 2.495 6.9375 2.75 C9 4 9 4 9.875 6 C9.936875 6.99 9.936875 6.99 10 8 C9.34 8.66 8.68 9.32 8 10 C7.608125 9.0925 7.21625 8.185 6.8125 7.25 C4.9212628 3.85881606 3.1445327 2.20967163 0 0 Z " fill="#A7A6E2" transform="translate(614,377)"/>
<path d="M0 0 C0.66 0 1.32 0 2 0 C2.66 2.97 3.32 5.94 4 9 C2.68 9 1.36 9 0 9 C0 6.03 0 3.06 0 0 Z " fill="#989BD3" transform="translate(866,504)"/>
<path d="M0 0 C0.66 0.33 1.32 0.66 2 1 C1.5020163 4.73487777 1.12508244 6.81237635 -1 10 C-1.66 10 -2.32 10 -3 10 C-2.21302675 6.58978257 -1.12880057 3.31114834 0 0 Z " fill="#B7BCE9" transform="translate(746,273)"/>
<path d="M0 0 C2.31 0 4.62 0 7 0 C7.33 1.32 7.66 2.64 8 4 C6.68 4 5.36 4 4 4 C4 3.34 4 2.68 4 2 C2.35 2 0.7 2 -1 2 C-0.67 1.34 -0.34 0.68 0 0 Z " fill="#7172D2" transform="translate(788,552)"/>
<path d="M0 0 C-0.25 1.875 -0.25 1.875 -1 4 C-3.0625 5.25 -3.0625 5.25 -5 6 C-5.33 5.01 -5.66 4.02 -6 3 C-3.375 0 -3.375 0 0 0 Z " fill="#8083D0" transform="translate(865,247)"/>
<path d="M0 0 C0.99 0.99 1.98 1.98 3 3 C2.8125 6.125 2.8125 6.125 2 9 C1.01 9.495 1.01 9.495 0 10 C0 6.7 0 3.4 0 0 Z " fill="#B0B8EF" transform="translate(746,501)"/>
<path d="M0 0 C1.60407328 -0.02708567 3.2082785 -0.04643483 4.8125 -0.0625 C5.70582031 -0.07410156 6.59914063 -0.08570313 7.51953125 -0.09765625 C10 0 10 0 13 1 C13 1.66 13 2.32 13 3 C11.02 3 9.04 3 7 3 C7 2.34 7 1.68 7 1 C4.69 1 2.38 1 0 1 C0 0.67 0 0.34 0 0 Z " fill="#9C9CB4" transform="translate(717,454)"/>
<path d="M0 0 C0.99 0 1.98 0 3 0 C3 2.97 3 5.94 3 9 C2.34 9 1.68 9 1 9 C1 7.02 1 5.04 1 3 C0.34 2.67 -0.32 2.34 -1 2 C-0.67 1.34 -0.34 0.68 0 0 Z " fill="#6866C0" transform="translate(789,423)"/>
<path d="M0 0 C3.96 1.98 3.96 1.98 8 4 C5 6 5 6 2 6 C2 5.34 2 4.68 2 4 C1.01 3.67 0.02 3.34 -1 3 C-0.67 2.01 -0.34 1.02 0 0 Z " fill="#999BD7" transform="translate(550,419)"/>
<path d="M0 0 C2.97 0.495 2.97 0.495 6 1 C6 1.66 6 2.32 6 3 C2.37 3.33 -1.26 3.66 -5 4 C-5 3.34 -5 2.68 -5 2 C-3.35 2 -1.7 2 0 2 C0 1.34 0 0.68 0 0 Z " fill="#8589DB" transform="translate(797,340)"/>
<path d="M0 0 C3.63 0 7.26 0 11 0 C9.68 1.32 8.36 2.64 7 4 C6.01 3.34 5.02 2.68 4 2 C2.68 1.34 1.36 0.68 0 0 Z " fill="#7072D9" transform="translate(816,264)"/>
<path d="M0 0 C1.98 0 3.96 0 6 0 C6.33 0.99 6.66 1.98 7 3 C4.69 3 2.38 3 0 3 C0 2.01 0 1.02 0 0 Z " fill="#7376C6" transform="translate(830,264)"/>
<path d="M0 0 C0.66 0.66 1.32 1.32 2 2 C1.75 4.5625 1.75 4.5625 1 7 C0.01 7.495 0.01 7.495 -1 8 C-1 7.34 -1 6.68 -1 6 C-1.66 6 -2.32 6 -3 6 C-2 4 -1 2 0 0 Z " fill="#9599DE" transform="translate(869,235)"/>
<path d="M0 0 C1.32 0.33 2.64 0.66 4 1 C2.62308038 3.75383923 0.63279958 4.51483101 -2 6 C-2.33 5.34 -2.66 4.68 -3 4 C-2.01 2.68 -1.02 1.36 0 0 Z " fill="#8D8FDA" transform="translate(802,405)"/>
<path d="M0 0 C3.25543229 0.34879632 4.01873107 1.02133261 6.25 3.5625 C6.8275 4.366875 7.405 5.17125 8 6 C4.06830895 6 2.83572772 4.60580385 0 2 C0 1.34 0 0.68 0 0 Z " fill="#A9ACD9" transform="translate(804,402)"/>
<path d="M0 0 C1.32 0.33 2.64 0.66 4 1 C-1.75 6 -1.75 6 -4 6 C-4 5.34 -4 4.68 -4 4 C-3.34 4 -2.68 4 -2 4 C-1.34 2.68 -0.68 1.36 0 0 Z " fill="#C0CEF0" transform="translate(717,315)"/>
<path d="M0 0 C1.125 3.75 1.125 3.75 0 6 C-0.22467831 7.53668865 -0.40796805 9.07968054 -0.5625 10.625 C-0.64628906 11.44226563 -0.73007812 12.25953125 -0.81640625 13.1015625 C-0.87699219 13.72804688 -0.93757812 14.35453125 -1 15 C-1.33 15 -1.66 15 -2 15 C-2.05406122 13.06280622 -2.09282025 11.12518079 -2.125 9.1875 C-2.14820313 8.10855469 -2.17140625 7.02960938 -2.1953125 5.91796875 C-2 3 -2 3 0 0 Z " fill="#EDB62D" transform="translate(798,288)"/>
<path d="M0 0 C2.31 0.33 4.62 0.66 7 1 C5 3 5 3 1.375 3.125 C0.26125 3.08375 -0.8525 3.0425 -2 3 C-1.34 2.67 -0.68 2.34 0 2 C0 1.34 0 0.68 0 0 Z " fill="#8F92DC" transform="translate(851,554)"/>
<path d="M0 0 C0.99 0 1.98 0 3 0 C2.6875 1.875 2.6875 1.875 2 4 C1.01 4.66 0.02 5.32 -1 6 C-1.33 5.01 -1.66 4.02 -2 3 C-1.34 2.01 -0.68 1.02 0 0 Z " fill="#A0A3CF" transform="translate(836,342)"/>
<path d="M0 0 C1.32 0.33 2.64 0.66 4 1 C2.35 2.65 0.7 4.3 -1 6 C-1 2 -1 2 0 0 Z " fill="#B9BFED" transform="translate(734,296)"/>
<path d="M0 0 C0.66 0 1.32 0 2 0 C2.33 2.64 2.66 5.28 3 8 C2.01 8.495 2.01 8.495 1 9 C0.67 6.03 0.34 3.06 0 0 Z " fill="#8D90D7" transform="translate(869,220)"/>
<path d="M0 0 C-3.12180401 0.96661363 -5.52083795 0.98988909 -8.75 0.5625 C-9.94882812 0.40974609 -9.94882812 0.40974609 -11.171875 0.25390625 C-11.77515625 0.17011719 -12.3784375 0.08632813 -13 0 C-13 -0.33 -13 -0.66 -13 -1 C-4.57142857 -2.42857143 -4.57142857 -2.42857143 0 0 Z " fill="#6D6FCA" transform="translate(860,554)"/>
<path d="M0 0 C2.97 0.495 2.97 0.495 6 1 C3.06171403 3.50298434 0.82097239 4.46930939 -3 5 C-3 4.34 -3 3.68 -3 3 C-2.01 3 -1.02 3 0 3 C0 2.01 0 1.02 0 0 Z " fill="#97A1E3" transform="translate(675,552)"/>
<path d="M0 0 C0.66 0.66 1.32 1.32 2 2 C1.34 4.31 0.68 6.62 0 9 C-0.66 8.67 -1.32 8.34 -2 8 C-1.125 1.125 -1.125 1.125 0 0 Z " fill="#9091DB" transform="translate(786,283)"/>
<path d="M0 0 C0.33 0.99 0.66 1.98 1 3 C-0.65 4.32 -2.3 5.64 -4 7 C-3.6875 4.625 -3.6875 4.625 -3 2 C-2.01 1.34 -1.02 0.68 0 0 Z " fill="#9698E1" transform="translate(787,207)"/>
<path d="M0 0 C-0.66 2.31 -1.32 4.62 -2 7 C-2.33 5.68 -2.66 4.36 -3 3 C-3.66 3 -4.32 3 -5 3 C-5 2.34 -5 1.68 -5 1 C-3 0 -3 0 0 0 Z " fill="#A3A5E9" transform="translate(871,539)"/>
<path d="M0 0 C1.5625 1.75 1.5625 1.75 3 4 C2.6875 6.25 2.6875 6.25 2 8 C1.34 8 0.68 8 0 8 C0 5.36 0 2.72 0 0 Z " fill="#9999D3" transform="translate(850,461)"/>
<path d="M0 0 C0.66 0.99 1.32 1.98 2 3 C0.35 4.65 -1.3 6.3 -3 8 C-2.45276317 4.62537285 -1.9451 2.91765 0 0 Z " fill="#A0A3DE" transform="translate(790,394)"/>
<path d="M0 0 C0.99 0.33 1.98 0.66 3 1 C1.35 2.65 -0.3 4.3 -2 6 C-2 4.68 -2 3.36 -2 2 C-1.34 2 -0.68 2 0 2 C0 1.34 0 0.68 0 0 Z " fill="#9B9BDE" transform="translate(798,384)"/>
<path d="M0 0 C2.62187494 1.04874998 3.79371361 1.64931313 5.25 4.125 C5.4975 4.74375 5.745 5.3625 6 6 C3.5625 5.25 3.5625 5.25 1 4 C0.1875 1.875 0.1875 1.875 0 0 Z " fill="#D7D8F6" transform="translate(745,346)"/>
<path d="M0 0 C0.99 0.33 1.98 0.66 3 1 C1.35 2.65 -0.3 4.3 -2 6 C-2.33 4.68 -2.66 3.36 -3 2 C-2.01 1.34 -1.02 0.68 0 0 Z " fill="#E8BC3A" transform="translate(802,285)"/>
<path d="M0 0 C3.16115776 1.36983503 3.9927092 1.9890638 6 5 C4.68 5.33 3.36 5.66 2 6 C1.34 4.02 0.68 2.04 0 0 Z " fill="#BABFEA" transform="translate(742,209)"/>
</svg>
